<svg xmlns:dc="http://purl.org/dc/elements/1.1/" xmlns:cc="http://creativecommons.org/ns#" xmlns:rdf="http://www.w3.org/1999/02/22-rdf-syntax-ns#" xmlns:svg="http://www.w3.org/2000/svg" xmlns="http://www.w3.org/2000/svg" xmlns:sodipodi="http://sodipodi.sourceforge.net/DTD/sodipodi-0.dtd" xmlns:inkscape="http://www.inkscape.org/namespaces/inkscape" version="1.1" x="0px" y="0px" viewBox="0 0 100 125"><g transform="translate(0,-952.36218)"><path style="text-indent:0;text-transform:none;direction:ltr;block-progression:tb;baseline-shift:baseline;color:#000000;enable-background:accumulate;" d="m 48.938095,958.35726 c -17.144098,0.58577 -30.937929,14.71967 -30.937929,32.00179 0,6.14697 1.735773,11.90225 4.750066,16.78215 l -16.4377277,26.1265 a 2.0002276,2.0003118 0 0 0 2.093779,3.0314 l 18.6565087,-3.719 8.250114,12.8445 a 2.0002276,2.0003118 0 0 0 3.437547,-0.094 l 11.250156,-19.9073 11.250156,19.9073 a 2.0002276,2.0003118 0 0 0 3.437548,0.094 l 8.250114,-12.8445 18.656508,3.719 a 2.0002276,2.0003118 0 0 0 2.093779,-3.0314 l -16.437727,-26.1265 c 3.014292,-4.8799 4.750065,-10.63518 4.750065,-16.78215 0,-15.06445 -10.504726,-27.5849 -24.531589,-30.97049 a 2.0086153,2.0086999 0 1 0 -0.937513,3.90647 c 12.293259,2.96717 21.469047,13.85604 21.469047,27.06402 0,15.48845 -12.512517,28.00155 -28.000388,28.00155 -15.487873,0 -28.000387,-12.5131 -28.000387,-28.00155 0,-15.15872 12.035378,-27.48812 27.062874,-28.00157 a 2.001004,2.0010883 0 1 0 -0.125001,-4.00022 z m 0.812511,13.00072 a 2.0106989,1.9898945 0 0 0 -1.562522,1.12507 l -4.718815,9.68804 -10.718899,1.43758 a 2.0106989,1.9898945 0 0 0 -1.156266,3.40644 l 7.843859,7.43792 -1.937527,10.53187 a 2.0106989,1.9898945 0 0 0 1.781275,2.3751 2.0106989,1.9898945 0 0 0 1.156266,-0.25 l 9.562632,-5.0316 9.562633,5.0316 a 2.0106989,1.9898945 0 0 0 2.93754,-2.1251 l -1.937527,-10.53187 7.843859,-7.43792 a 2.0106989,1.9898945 0 0 0 -1.125015,-3.40644 l -10.750149,-1.43758 -4.718816,-9.68804 a 2.0106989,1.9898945 0 0 0 -2.062528,-1.12507 z m 0.250003,6.59412 3.375047,6.90664 a 2.0106989,1.9898945 0 0 0 1.531271,1.09381 l 7.718857,1.03131 -5.593827,5.34405 a 2.0106989,1.9898945 0 0 0 -0.593759,1.78135 l 1.375019,7.53164 -6.843844,-3.59392 a 2.0106989,1.9898945 0 0 0 -1.937527,0 l -6.843845,3.59392 1.375019,-7.53164 a 2.0106989,1.9898945 0 0 0 -0.593758,-1.78135 l -5.593828,-5.34405 7.718857,-1.03131 a 2.0106989,1.9898945 0 0 0 1.531272,-1.09381 l 3.375046,-6.90664 z m -24.719092,32.7206 c 5.315472,6.4571 13.102845,10.7963 21.906553,11.5632 l -10.312642,18.2197 -7.1876,-11.1882 a 2.0002276,2.0003118 0 0 0 -2.093779,-0.875 l -15.406463,3.094 13.093931,-20.8137 z m 49.438185,0 13.093931,20.8137 -15.406464,-3.094 a 2.0002276,2.0003118 0 0 0 -2.093778,0.875 l -7.1876,11.1882 -10.312643,-18.2197 c 8.80372,-0.7669 16.591075,-5.1061 21.906554,-11.5632 z" fill="#000000" fill-opacity="1" stroke="none" marker="none" visibility="visible" display="inline" overflow="visible"/></g><text x="0" y="115" fill="#000000" font-size="5px" font-weight="bold" font-family="'Helvetica Neue', Helvetica, Arial-Unicode, Arial, Sans-serif">Created by vigorn</text><text x="0" y="120" fill="#000000" font-size="5px" font-weight="bold" font-family="'Helvetica Neue', Helvetica, Arial-Unicode, Arial, Sans-serif">from the Noun Project</text></svg>