<svg width="56" height="56" viewBox="0 0 56 56" fill="none" xmlns="http://www.w3.org/2000/svg">
<g clip-path="url(#clip0_14_500)">
<path d="M27.9999 13.2404C21.3566 13.2404 15.9517 18.6453 15.9517 25.2886C15.9517 31.9319 21.3566 37.3368 27.9999 37.3368C34.6433 37.3368 40.0481 31.9319 40.0481 25.2886C40.0481 18.6453 34.6433 13.2404 27.9999 13.2404ZM27.9999 35.0953C22.5924 35.0953 18.1933 30.6961 18.1933 25.2886C18.1933 19.8811 22.5924 15.4819 27.9999 15.4819C33.4074 15.4819 37.8066 19.8811 37.8066 25.2886C37.8066 30.6961 33.4074 35.0953 27.9999 35.0953Z" fill="green" fill-opacity="0.5"/>
<path d="M30.9139 21.8143C31.5328 21.8143 32.0347 21.3124 32.0347 20.6936C32.0347 20.0747 31.5328 19.5728 30.9139 19.5728H25.086C24.4671 19.5728 23.9652 20.0747 23.9652 20.6936C23.9652 21.3124 24.4671 21.8143 25.086 21.8143H26.8792V28.7631H25.086C24.4671 28.7631 23.9652 29.265 23.9652 29.8838C23.9652 30.5027 24.4671 31.0046 25.086 31.0046H30.9139C31.5328 31.0046 32.0347 30.5027 32.0347 29.8838C32.0347 29.265 31.5328 28.7631 30.9139 28.7631H29.1207V21.8143H30.9139Z" fill="white" fill-opacity="0.5"/>
<path d="M27.9999 5.24576C28.6188 5.24576 29.1207 4.74384 29.1207 4.12499V1.99546C29.1207 1.37662 28.6188 0.874695 27.9999 0.874695C27.3811 0.874695 26.8792 1.37662 26.8792 1.99546V4.12488C26.8792 4.74384 27.381 5.24576 27.9999 5.24576Z" fill="white" fill-opacity="0.5"/>
<path d="M48.0429 25.2886C48.0429 25.9075 48.5448 26.4094 49.1637 26.4094H51.2931C51.9119 26.4094 52.4139 25.9075 52.4139 25.2886C52.4139 24.6698 51.9119 24.1678 51.2931 24.1678H49.1637C48.5447 24.1678 48.0429 24.6697 48.0429 25.2886Z" fill="white" fill-opacity="0.5"/>
<path d="M4.70683 26.4094H6.83625C7.45509 26.4094 7.95701 25.9075 7.95701 25.2886C7.95701 24.6698 7.45509 24.1678 6.83625 24.1678H4.70683C4.08798 24.1678 3.58606 24.6698 3.58606 25.2886C3.58606 25.9075 4.08787 26.4094 4.70683 26.4094Z" fill="white" fill-opacity="0.5"/>
<path d="M38.0214 7.9309C38.1979 8.03273 38.3906 8.08129 38.5806 8.08129C38.9679 8.08129 39.3447 7.88026 39.5523 7.52075L40.6171 5.67657C40.9266 5.14053 40.743 4.45507 40.2069 4.14565C39.6708 3.83612 38.9854 4.01987 38.676 4.55581L37.6113 6.39998C37.3017 6.93603 37.4854 7.62148 38.0214 7.9309Z" fill="white" fill-opacity="0.5"/>
<path d="M7.26717 14.6126L9.11134 15.6774C9.28787 15.7792 9.48048 15.8278 9.67058 15.8278C10.0579 15.8278 10.4347 15.6267 10.6423 15.2672C10.9518 14.7312 10.7682 14.0457 10.2321 13.7363L8.38794 12.6715C7.85178 12.362 7.16633 12.5458 6.85702 13.0817C6.54737 13.6176 6.73091 14.3031 7.26717 14.6126Z" fill="white" fill-opacity="0.5"/>
<path d="M46.3293 15.8277C46.5194 15.8277 46.712 15.7791 46.8886 15.6773L48.7327 14.6125C49.2688 14.3031 49.4525 13.6177 49.1429 13.0816C48.8335 12.5457 48.1483 12.3619 47.612 12.6715L45.7678 13.7362C45.2317 14.0457 45.048 14.7311 45.3576 15.2672C45.5653 15.6267 45.9419 15.8277 46.3293 15.8277Z" fill="white" fill-opacity="0.5"/>
<path d="M16.4476 7.52066C16.6553 7.88018 17.0318 8.08132 17.4192 8.08132C17.6093 8.08132 17.8019 8.03276 17.9785 7.93093C18.5145 7.62151 18.6983 6.93605 18.3886 6.40001L17.3239 4.55583C17.0143 4.02001 16.3292 3.83604 15.7929 4.14568C15.2569 4.4551 15.0731 5.14055 15.3828 5.6766L16.4476 7.52066Z" fill="white" fill-opacity="0.5"/>
<path d="M55.9021 47.6579C55.0924 45.8509 53.8389 45.7009 52.8318 45.5803C52.1913 45.5036 51.5863 45.4311 50.853 44.9648C50.2839 44.6028 50.2206 44.2892 50.1216 43.4354C50.0248 42.6017 49.8921 41.4601 48.8306 40.3985C47.7309 39.2988 46.7099 39.161 45.8895 39.0504C45.2326 38.9617 44.7987 38.9033 44.2344 38.3385C43.6697 37.7738 43.6109 37.3397 43.5219 36.6827C43.4458 36.1195 43.3567 35.4617 42.9523 34.7489L43.0166 34.7204C43.46 34.523 43.726 34.0627 43.6757 33.5799L43.2361 29.3718L45.7187 25.9464C46.0032 25.5541 46.0032 25.0235 45.7187 24.6311L43.2361 21.2057L43.6757 16.9977C43.726 16.5149 43.46 16.0546 43.0166 15.8572L39.1514 14.1373L37.4316 10.2719C37.2341 9.82849 36.7756 9.56271 36.2911 9.6128L32.083 10.0524L28.6576 7.56979C28.2654 7.28541 27.7346 7.28541 27.3423 7.56979L23.9169 10.0524L19.7089 9.6128C19.2262 9.56293 18.7657 9.82849 18.5684 10.2719L16.8485 14.1371L12.9833 15.8569C12.5399 16.0543 12.2739 16.5146 12.3242 16.9974L12.7638 21.2055L10.2812 24.6309C9.99671 25.0232 9.99671 25.5538 10.2812 25.9462L12.7638 29.3716L12.3242 33.5796C12.2739 34.0624 12.5398 34.5227 12.9833 34.7201L13.0476 34.7487C12.6433 35.4616 12.5541 36.1194 12.478 36.6826C12.389 37.3396 12.3302 37.7736 11.7653 38.3387C11.2014 38.903 10.7674 38.9616 10.1104 39.0503C9.29004 39.1609 8.26902 39.2988 7.16926 40.3984C6.10777 41.46 5.97521 42.6015 5.87841 43.4352C5.77921 44.2891 5.71599 44.6027 5.14691 44.9647C4.41355 45.431 3.8086 45.5036 3.1681 45.5802C2.16109 45.7008 0.907649 45.8508 0.0978361 47.6578C-0.0482889 47.9841 -0.0301326 48.3605 0.146945 48.6711C0.323914 48.9816 0.638586 49.1892 0.993946 49.2295L7.1207 49.9272L6.79541 53.9133C6.76315 54.3082 6.94187 54.6908 7.26551 54.9196C7.4579 55.0557 7.68441 55.1253 7.91257 55.1253C8.0681 55.1253 8.2244 55.0929 8.37096 55.0272C9.08901 54.7053 9.58109 54.609 10.0569 54.5158C10.9403 54.3429 11.7747 54.1796 13.0334 52.921C14.1331 51.8214 14.2712 50.8008 14.382 49.9807C14.471 49.3236 14.5298 48.8896 15.0947 48.3244C15.6588 47.76 16.0929 47.7012 16.7502 47.6124C17.5703 47.5017 18.5911 47.3637 19.6907 46.2648C20.7904 45.1651 20.9282 44.1439 21.0389 43.3235C21.1276 42.6663 21.186 42.2321 21.7507 41.6676C22.2156 41.2026 22.7288 41.1224 23.5272 41.0303C23.8221 40.9964 24.123 40.9609 24.4271 40.8946L27.3422 43.0074C27.5383 43.1496 27.7692 43.2207 27.9998 43.2207C28.2305 43.2207 28.4614 43.1495 28.6575 43.0074L31.5726 40.8946C31.8766 40.9608 32.1775 40.9962 32.4725 41.0303C33.2709 41.1223 33.7839 41.2025 34.249 41.6676C34.8135 42.232 34.8721 42.6663 34.9608 43.3235C35.0715 44.1439 35.2093 45.1651 36.3093 46.265C37.4087 47.3638 38.4294 47.5017 39.2495 47.6124C39.9066 47.7012 40.3406 47.7597 40.9051 48.3247C41.4698 48.8894 41.5285 49.3235 41.6176 49.9806C41.7284 50.8007 41.8666 51.8214 42.9662 52.9209C44.2247 54.1795 45.0593 54.3429 45.9427 54.5157C46.4186 54.6089 46.9106 54.7052 47.6286 55.0271C47.7752 55.0927 47.9315 55.1252 48.087 55.1252C48.315 55.1252 48.5418 55.0556 48.7341 54.9195C49.0577 54.6908 49.2364 54.3082 49.2041 53.9132L48.8789 49.9271L55.0056 49.2294C55.3609 49.1891 55.6756 48.9815 55.8526 48.6709C56.03 48.3606 56.0482 47.9843 55.9021 47.6579ZM19.4614 40.9626C18.9929 41.7246 18.8981 42.4274 18.8175 43.0239C18.7288 43.6811 18.6704 44.1154 18.106 44.6796C17.5415 45.2437 17.1073 45.3024 16.4501 45.3912C15.6296 45.502 14.6085 45.6402 13.5095 46.7398C12.4099 47.8395 12.2717 48.8601 12.1608 49.6801C12.0719 50.3373 12.0131 50.7713 11.4484 51.3361C10.6732 52.1113 10.3452 52.1755 9.62637 52.3162C9.48341 52.3442 9.33106 52.3741 9.1671 52.4105L9.44316 49.0278C9.49238 48.4247 9.05401 47.8915 8.45288 47.8232L5.1456 47.4466C5.52306 47.3131 5.92643 47.1256 6.34971 46.8564C7.84837 45.9032 7.99668 44.6264 8.10496 43.6939C8.18601 42.9969 8.24441 42.4934 8.75432 41.9835C9.3188 41.4191 9.75291 41.3604 10.41 41.2717C11.2305 41.1611 12.2515 41.0232 13.3505 39.9236C14.4501 38.824 14.5883 37.8033 14.6992 36.9832C14.7693 36.4644 14.8208 36.0846 15.1172 35.6699L16.8483 36.4402L18.5681 40.3054C18.7315 40.6726 19.0743 40.9172 19.4622 40.9624L19.4614 40.9626ZM35.7145 38.6504L31.8892 38.2509C31.6141 38.2223 31.3387 38.2961 31.1151 38.4583L27.9999 40.7159L24.8848 38.4582C24.6928 38.3189 24.4624 38.2449 24.2272 38.2449C24.1883 38.2449 24.1496 38.2468 24.1107 38.2509L20.2854 38.6504L18.7214 35.1355C18.6087 34.8823 18.4063 34.6799 18.1531 34.5671L14.6381 33.0032L15.0377 29.1779C15.0664 28.9031 14.9926 28.6274 14.8303 28.4038L12.5725 25.2886L14.8303 22.1735C14.9925 21.95 15.0662 21.6742 15.0377 21.3994L14.6381 17.5741L18.1531 16.0101C18.4063 15.8974 18.6087 15.695 18.7214 15.4418L20.2854 11.9268L24.1107 12.3264C24.3855 12.3551 24.6612 12.2812 24.8848 12.119L27.9999 9.86141L31.1151 12.1192C31.3387 12.2814 31.6145 12.3552 31.8892 12.3266L35.7145 11.9271L37.2784 15.4421C37.3912 15.6953 37.5936 15.8976 37.8468 16.0104L41.3617 17.5743L40.9622 21.3996C40.9335 21.6745 41.0073 21.9501 41.1696 22.1738L43.4274 25.2889L41.1696 28.404C41.0074 28.6275 40.9336 28.9033 40.9622 29.1781L41.3617 33.0034L37.8468 34.5674C37.5936 34.6801 37.3912 34.8825 37.2784 35.1357L35.7145 38.6504ZM47.5471 47.8232C46.946 47.8915 46.5076 48.4249 46.5568 49.0278L46.8329 52.4105C46.6689 52.3741 46.5167 52.3442 46.3736 52.3162C45.6549 52.1755 45.3268 52.1113 44.5516 51.3361C43.9869 50.7714 43.9281 50.3373 43.8392 49.6801C43.7283 48.8601 43.59 47.8394 42.4907 46.7401C41.3914 45.6402 40.3704 45.502 39.5499 45.3912C38.8927 45.3024 38.4586 45.2439 37.8943 44.6799C37.3299 44.1154 37.2712 43.6811 37.1825 43.0239C37.1019 42.4274 37.0072 41.7246 36.5386 40.9627L36.5373 40.9622C36.9246 40.9169 37.2683 40.6724 37.4316 40.3053L39.1515 36.4401L40.8826 35.6699C41.179 36.0846 41.2305 36.4645 41.3006 36.9832C41.4115 37.8033 41.5498 38.8241 42.6491 39.9232C43.7484 41.0232 44.7693 41.1611 45.5897 41.2717C46.2469 41.3603 46.6809 41.4188 47.2455 41.9835C47.7555 42.4934 47.8139 42.997 47.8948 43.6939C48.0031 44.6263 48.1514 45.9032 49.6501 46.8564C50.0734 47.1255 50.4767 47.3129 50.8542 47.4466L47.5471 47.8232Z" fill="white" fill-opacity="0.5"/>
</g>
<defs>
<clipPath id="clip0_14_500">
<path d="M0 4C0 1.79086 1.79086 0 4 0H52C54.2091 0 56 1.79086 56 4V56H0V4Z" fill="white"/>
</clipPath>
</defs>
</svg>
