<svg width="65" height="53" viewBox="0 0 65 53" fill="none" xmlns="http://www.w3.org/2000/svg">
<path d="M62.0455 11.7778H45.302V2.94444C45.302 2.16353 44.9908 1.4146 44.4367 0.862408C43.8826 0.310217 43.1311 0 42.3475 0H22.6525C21.8689 0 21.1174 0.310217 20.5633 0.862408C20.0092 1.4146 19.698 2.16353 19.698 2.94444V23.5556H2.95455C2.17095 23.5556 1.41945 23.8658 0.865366 24.418C0.311281 24.9702 0 25.7191 0 26.5V50.0556C0 50.8365 0.311281 51.5854 0.865366 52.1376C1.41945 52.6898 2.17095 53 2.95455 53H62.0455C62.829 53 63.5806 52.6898 64.1346 52.1376C64.6887 51.5854 65 50.8365 65 50.0556V14.7222C65 13.9413 64.6887 13.1924 64.1346 12.6402C63.5806 12.088 62.829 11.7778 62.0455 11.7778ZM19.698 47.1111H5.90909V29.4444H19.698V47.1111ZM39.393 47.1111H25.607V5.88889H39.393V47.1111ZM59.0909 47.1111H45.302V17.6667H59.0909V47.1111Z" fill="white" fill-opacity="0.5"/>
</svg>
