<svg width="55" height="52" viewBox="0 0 55 52" fill="none" xmlns="http://www.w3.org/2000/svg">
<path d="M10.2094 1.21333C10.5321 0.832813 10.9328 0.527317 11.3837 0.317863C11.8347 0.108408 12.3254 -3.29356e-05 12.8219 7.50355e-09H42.1781C42.6746 -3.29356e-05 43.1653 0.108408 43.6163 0.317863C44.0672 0.527317 44.4679 0.832813 44.7906 1.21333L53.7591 11.7659C54.5598 12.7082 55 13.9083 55 15.1493V16.0333C55.0002 17.7493 54.4688 19.4224 53.48 20.8188C52.4912 22.2152 51.0945 23.2652 49.4851 23.822C47.8757 24.3789 46.134 24.4146 44.5035 23.9244C42.8729 23.4342 41.435 22.4424 40.3906 21.0877C39.628 22.0784 38.6507 22.8799 37.5335 23.4309C36.4163 23.9819 35.1889 24.2678 33.9453 24.2667C32.7016 24.2681 31.4742 23.9823 30.357 23.4313C29.2398 22.8803 28.2625 22.0786 27.5 21.0877C26.7375 22.0786 25.7602 22.8803 24.643 23.4313C23.5258 23.9823 22.2984 24.2681 21.0547 24.2667C19.811 24.2681 18.5835 23.9823 17.4663 23.4313C16.3491 22.8803 15.3718 22.0786 14.6094 21.0877C13.565 22.4424 12.1271 23.4342 10.4965 23.9244C8.86597 24.4146 7.12427 24.3789 5.51486 23.822C3.90546 23.2652 2.50877 22.2152 1.52 20.8188C0.531237 19.4224 -0.000187683 17.7493 4.97219e-08 16.0333V15.1493C4.33384e-05 13.9083 0.440195 12.7082 1.24094 11.7659L10.2128 1.20987L10.2094 1.21333ZM16.3281 16.0333C16.3281 17.2975 16.8261 18.51 17.7125 19.4039C18.5989 20.2978 19.8011 20.8 21.0547 20.8C22.3083 20.8 23.5105 20.2978 24.3969 19.4039C25.2833 18.51 25.7812 17.2975 25.7812 16.0333C25.7812 15.5736 25.9623 15.1327 26.2847 14.8077C26.607 14.4826 27.0442 14.3 27.5 14.3C27.9558 14.3 28.393 14.4826 28.7153 14.8077C29.0377 15.1327 29.2188 15.5736 29.2188 16.0333C29.2188 17.2975 29.7167 18.51 30.6031 19.4039C31.4895 20.2978 32.6917 20.8 33.9453 20.8C35.1989 20.8 36.4011 20.2978 37.2875 19.4039C38.1739 18.51 38.6719 17.2975 38.6719 16.0333C38.6719 15.5736 38.853 15.1327 39.1753 14.8077C39.4976 14.4826 39.9348 14.3 40.3906 14.3C40.8465 14.3 41.2836 14.4826 41.606 14.8077C41.9283 15.1327 42.1094 15.5736 42.1094 16.0333C42.1094 17.2975 42.6073 18.51 43.4938 19.4039C44.3802 20.2978 45.5824 20.8 46.8359 20.8C48.0895 20.8 49.2917 20.2978 50.1781 19.4039C51.0645 18.51 51.5625 17.2975 51.5625 16.0333V15.1493C51.5625 14.7362 51.4162 14.3366 51.15 14.0227L42.1781 3.46667H12.8219L3.85 14.0227C3.58376 14.3366 3.43747 14.7362 3.4375 15.1493V16.0333C3.4375 17.2975 3.93548 18.51 4.82188 19.4039C5.70828 20.2978 6.9105 20.8 8.16406 20.8C9.41762 20.8 10.6198 20.2978 11.5062 19.4039C12.3926 18.51 12.8906 17.2975 12.8906 16.0333C12.8906 15.5736 13.0717 15.1327 13.394 14.8077C13.7164 14.4826 14.1535 14.3 14.6094 14.3C15.0652 14.3 15.5024 14.4826 15.8247 14.8077C16.147 15.1327 16.3281 15.5736 16.3281 16.0333ZM5.15625 26C5.61209 26 6.04926 26.1826 6.37159 26.5077C6.69392 26.8327 6.875 27.2736 6.875 27.7333V48.5333H10.3125V31.2C10.3125 30.2806 10.6747 29.3988 11.3193 28.7487C11.964 28.0986 12.8383 27.7333 13.75 27.7333H24.0625C24.9742 27.7333 25.8485 28.0986 26.4932 28.7487C27.1378 29.3988 27.5 30.2806 27.5 31.2V48.5333H48.125V27.7333C48.125 27.2736 48.3061 26.8327 48.6284 26.5077C48.9507 26.1826 49.3879 26 49.8438 26C50.2996 26 50.7368 26.1826 51.0591 26.5077C51.3814 26.8327 51.5625 27.2736 51.5625 27.7333V48.5333H53.2812C53.7371 48.5333 54.1743 48.716 54.4966 49.041C54.8189 49.3661 55 49.807 55 50.2667C55 50.7264 54.8189 51.1673 54.4966 51.4923C54.1743 51.8174 53.7371 52 53.2812 52H1.71875C1.26291 52 0.825738 51.8174 0.50341 51.4923C0.181082 51.1673 4.97219e-08 50.7264 4.97219e-08 50.2667C4.97219e-08 49.807 0.181082 49.3661 0.50341 49.041C0.825738 48.716 1.26291 48.5333 1.71875 48.5333H3.4375V27.7333C3.4375 27.2736 3.61858 26.8327 3.94091 26.5077C4.26324 26.1826 4.70041 26 5.15625 26ZM13.75 48.5333H24.0625V31.2H13.75V48.5333ZM30.9375 31.2C30.9375 30.2806 31.2997 29.3988 31.9443 28.7487C32.589 28.0986 33.4633 27.7333 34.375 27.7333H41.25C42.1617 27.7333 43.036 28.0986 43.6807 28.7487C44.3253 29.3988 44.6875 30.2806 44.6875 31.2V41.6C44.6875 42.5194 44.3253 43.4012 43.6807 44.0513C43.036 44.7014 42.1617 45.0667 41.25 45.0667H34.375C33.4633 45.0667 32.589 44.7014 31.9443 44.0513C31.2997 43.4012 30.9375 42.5194 30.9375 41.6V31.2ZM41.25 31.2H34.375V41.6H41.25V31.2Z" fill="white"/>
</svg>
