<svg width="16" height="16" viewBox="0 0 16 16" fill="none" xmlns="http://www.w3.org/2000/svg">
<path d="M14.4641 6.82526L10.5853 5.41473L9.17481 1.53589C9.08712 1.29475 8.92734 1.08643 8.71718 0.939228C8.50701 0.792025 8.25663 0.713067 8.00004 0.713074C7.74345 0.713081 7.49308 0.792052 7.28292 0.939266C7.07276 1.08648 6.91299 1.2948 6.82532 1.53595L5.4148 5.41473L1.53595 6.82526C1.29481 6.91294 1.08649 7.07272 0.939289 7.28289C0.792086 7.49305 0.713128 7.74343 0.713135 8.00002C0.713142 8.25661 0.792113 8.50699 0.939327 8.71714C1.08654 8.9273 1.29486 9.08707 1.53601 9.17474L5.4148 10.5853L6.82532 14.4641C6.91301 14.7053 7.07278 14.9136 7.28295 15.0608C7.49312 15.208 7.74349 15.2869 8.00008 15.2869C8.25668 15.2869 8.50705 15.2079 8.71721 15.0607C8.92737 14.9135 9.08713 14.7052 9.17481 14.464L10.5853 10.5853L14.4642 9.17474C14.7053 9.08705 14.9136 8.92728 15.0608 8.71711C15.208 8.50695 15.287 8.25657 15.287 7.99998C15.287 7.74339 15.208 7.49301 15.0608 7.28285C14.9136 7.07269 14.7053 6.91293 14.4641 6.82526ZM9.96314 9.21539C9.79135 9.27765 9.63534 9.37688 9.50614 9.50608C9.37694 9.63528 9.27771 9.79129 9.21546 9.96307L9.21552 9.96301L8.00006 13.3054L6.78467 9.96307C6.72243 9.7913 6.6232 9.6353 6.49401 9.50611C6.36482 9.37692 6.20882 9.2777 6.03705 9.21545L2.69464 8L6.03699 6.78461C6.20876 6.72236 6.36476 6.62314 6.49395 6.49395C6.62314 6.36476 6.72237 6.20876 6.78461 6.03699L8.00006 2.69458L9.21546 6.03693C9.2777 6.2087 9.37692 6.3647 9.50611 6.49389C9.6353 6.62308 9.7913 6.7223 9.96307 6.78454L13.3055 8L9.96314 9.21539Z" fill="#FEBD5F"/>
</svg>
